<svg xmlns="http://www.w3.org/2000/svg" viewBox="0 0 600 400" width="600" height="400">
  <defs>
    <linearGradient id="shieldGrad" x1="0%" y1="0%" x2="100%" y2="100%">
      <stop offset="0%" style="stop-color:#38bdf8;stop-opacity:1" />
      <stop offset="100%" style="stop-color:#0ea5e9;stop-opacity:1" />
    </linearGradient>
    <linearGradient id="darkBlue" x1="0%" y1="0%" x2="100%" y2="100%">
      <stop offset="0%" style="stop-color:#1e3a5f;stop-opacity:1" />
      <stop offset="100%" style="stop-color:#172554;stop-opacity:1" />
    </linearGradient>
  </defs>
  
  <!-- Shield (forms the Q shape) -->
  <path d="M160 50 L270 90 L270 200 C270 275 220 330 175 355 C125 330 80 275 80 200 L80 90 Z" 
        fill="url(#shieldGrad)" opacity="0.95"/>
  
  <!-- Shield inner highlight -->
  <path d="M160 62 L262 98 L262 200 C262 268 215 320 175 343 C130 320 88 268 88 200 L88 98 Z" 
        fill="none" stroke="white" stroke-width="1.5" opacity="0.3"/>
  
  <!-- Magnifying glass circle -->
  <circle cx="168" cy="185" r="58" fill="none" stroke="url(#darkBlue)" stroke-width="11"/>
  
  <!-- Magnifying glass handle -->
  <line x1="212" y1="230" x2="255" y2="273" stroke="url(#darkBlue)" stroke-width="12" stroke-linecap="round"/>
  
  <!-- Code brackets < /> inside magnifier -->
  <text x="130" y="200" font-family="monospace" font-size="36" font-weight="bold" fill="#22c55e">&lt;</text>
  <text x="158" y="205" font-family="monospace" font-size="26" font-weight="bold" fill="#a855f7">/</text>
  <text x="174" y="200" font-family="monospace" font-size="36" font-weight="bold" fill="#22c55e">&gt;</text>
  
  <!-- QALogs text - A is bold, Logs is regular -->
  <text x="305" y="230" font-family="'Plus Jakarta Sans', 'Segoe UI', Arial, sans-serif" font-size="80" font-weight="800" fill="#1e3a5f" letter-spacing="-2">A</text>
  <text x="365" y="230" font-family="'Plus Jakarta Sans', 'Segoe UI', Arial, sans-serif" font-size="72" font-weight="300" fill="#1e3a5f" letter-spacing="-1">Logs</text>
  
</svg>
